<svg width="10" height="10" viewBox="0 0 10 10" fill="none" xmlns="http://www.w3.org/2000/svg">
<g clip-path="url(#clip0_302_1272)">
<path d="M4.99581 0.750488C2.69581 0.750488 0.833313 2.43142 0.833313 4.50256C0.833313 6.57371 2.69581 8.25463 4.99581 8.25463C7.29998 8.25463 9.16665 6.57371 9.16665 4.50256C9.16665 2.43142 7.29998 0.750488 4.99581 0.750488ZM4.99998 7.50422C3.15831 7.50422 1.66665 6.16098 1.66665 4.50256C1.66665 2.84415 3.15831 1.5009 4.99998 1.5009C6.84165 1.5009 8.33331 2.84415 8.33331 4.50256C8.33331 6.16098 6.84165 7.50422 4.99998 7.50422Z" fill="white"/>
<path d="M5.20831 2.62646H4.58331V4.87771L6.77081 6.05961L7.08331 5.59811L5.20831 4.5963V2.62646Z" fill="white"/>
</g>
<defs>
<clipPath id="clip0_302_1272">
<rect width="10" height="9.00497" fill="white"/>
</clipPath>
</defs>
</svg>
