<svg width="9" height="9" viewBox="0 0 9 9" fill="none" xmlns="http://www.w3.org/2000/svg">
<g clip-path="url(#clip0_302_1278)">
<path d="M0.75 7.125C0.75 7.7625 1.2375 8.25 1.875 8.25H7.125C7.7625 8.25 8.25 7.7625 8.25 7.125V4.125H0.75V7.125ZM7.125 1.5H6.375V1.125C6.375 0.9 6.225 0.75 6 0.75C5.775 0.75 5.625 0.9 5.625 1.125V1.5H3.375V1.125C3.375 0.9 3.225 0.75 3 0.75C2.775 0.75 2.625 0.9 2.625 1.125V1.5H1.875C1.2375 1.5 0.75 1.9875 0.75 2.625V3.375H8.25V2.625C8.25 1.9875 7.7625 1.5 7.125 1.5Z" fill="white"/>
</g>
<defs>
<clipPath id="clip0_302_1278">
<rect width="9" height="9" fill="white"/>
</clipPath>
</defs>
</svg>
