<svg width="24" height="14" viewBox="0 0 24 14" fill="none" xmlns="http://www.w3.org/2000/svg">
<path d="M17.875 13.6093C17.6458 13.8385 17.3592 13.9531 17.015 13.9531C16.6708 13.9531 16.3742 13.8281 16.125 13.5781C15.875 13.3281 15.75 13.0314 15.75 12.6881C15.75 12.3447 15.875 12.0477 16.125 11.7968L20.9688 6.95308L16.0938 2.07808C15.8646 1.84891 15.755 1.56266 15.765 1.21933C15.775 0.875995 15.895 0.589328 16.125 0.359328C16.3542 0.130162 16.6458 0.0155789 17 0.0155789C17.3542 0.0155789 17.6458 0.130162 17.875 0.359328L23.625 6.10933C23.875 6.35933 24 6.65099 24 6.98433C24 7.31766 23.875 7.60933 23.625 7.85933L17.875 13.6093ZM6.125 13.6093L0.375 7.85933C0.125 7.60933 0 7.31766 0 6.98433C0 6.65099 0.125 6.35933 0.375 6.10933L6.125 0.359328C6.35417 0.130162 6.64583 0.0105788 7 0.00057878C7.35417 -0.00942122 7.65625 0.110162 7.90625 0.359328C8.15625 0.609328 8.28125 0.906412 8.28125 1.25058C8.28125 1.59475 8.15625 1.89141 7.90625 2.14058L3.03125 7.01558L7.90625 11.8906C8.13542 12.1197 8.245 12.4064 8.235 12.7506C8.225 13.0947 8.105 13.381 7.875 13.6093C7.64583 13.8385 7.35417 13.9531 7 13.9531C6.64583 13.9531 6.35417 13.8385 6.125 13.6093Z" fill="white"/>
</svg>
