<svg width="138" height="28" viewBox="0 0 138 28" fill="none" xmlns="http://www.w3.org/2000/svg">
<path d="M7.68 21.28C6.76533 21.28 5.67333 21.2427 4.404 21.168C3.13467 21.0933 1.89333 21 0.68 20.888V0.672C1.89333 0.559999 3.13467 0.466665 4.404 0.391998C5.67333 0.317333 6.76533 0.28 7.68 0.28C10.2 0.28 12.216 0.625333 13.728 1.316C15.24 2.00667 16.332 3.12667 17.004 4.676C17.6947 6.20667 18.04 8.24133 18.04 10.78C18.04 13.3187 17.6947 15.3627 17.004 16.912C16.332 18.4427 15.24 19.5533 13.728 20.244C12.216 20.9347 10.2 21.28 7.68 21.28ZM8.044 16.8C9.20133 16.8 10.088 16.6413 10.704 16.324C11.32 15.988 11.74 15.3907 11.964 14.532C12.188 13.6547 12.3 12.404 12.3 10.78C12.3 9.13733 12.188 7.88667 11.964 7.028C11.74 6.16933 11.32 5.58133 10.704 5.264C10.088 4.928 9.20133 4.76 8.044 4.76C7.652 4.76 7.12 4.77867 6.448 4.816C5.79467 4.83467 4.89867 4.89067 3.76 4.984L6.28 2.52V19.04L3.76 16.576C4.89867 16.6507 5.79467 16.7067 6.448 16.744C7.12 16.7813 7.652 16.8 8.044 16.8ZM20.8109 21V7.28H26.4109V21H20.8109ZM23.6109 5.6C22.6402 5.6 21.8842 5.35733 21.3429 4.872C20.8016 4.368 20.5309 3.67733 20.5309 2.8C20.5309 1.92267 20.8016 1.24133 21.3429 0.755999C21.8842 0.251998 22.6402 -1.66893e-06 23.6109 -1.66893e-06C24.5816 -1.66893e-06 25.3376 0.251998 25.8789 0.755999C26.4202 1.24133 26.6909 1.92267 26.6909 2.8C26.6909 3.67733 26.4202 4.368 25.8789 4.872C25.3376 5.35733 24.5816 5.6 23.6109 5.6ZM35.3398 21.28C34.2198 21.28 33.1185 21.1867 32.0358 21C30.9718 20.7947 30.0292 20.5147 29.2078 20.16L29.7678 16.24C30.7572 16.5947 31.7278 16.8747 32.6798 17.08C33.6505 17.2667 34.5185 17.36 35.2838 17.36C35.8065 17.36 36.1612 17.304 36.3478 17.192C36.5532 17.0613 36.6558 16.8467 36.6558 16.548C36.6558 16.3987 36.6185 16.2773 36.5438 16.184C36.4692 16.072 36.3198 15.9787 36.0958 15.904C35.8905 15.8293 35.5732 15.7453 35.1438 15.652C33.7252 15.2973 32.5678 14.896 31.6718 14.448C30.7945 13.9813 30.1412 13.4307 29.7118 12.796C29.3012 12.1613 29.0958 11.424 29.0958 10.584C29.0958 9.128 29.6652 8.02667 30.8038 7.28C31.9612 6.53333 33.6598 6.16 35.8998 6.16C36.9078 6.16 37.8785 6.244 38.8118 6.412C39.7452 6.58 40.7252 6.85067 41.7518 7.224L41.1918 11.144C40.2212 10.7893 39.3065 10.528 38.4478 10.36C37.5892 10.1733 36.8052 10.08 36.0958 10.08C35.5918 10.08 35.2278 10.136 35.0038 10.248C34.7985 10.3413 34.6958 10.5187 34.6958 10.78C34.6958 10.9293 34.7425 11.06 34.8358 11.172C34.9292 11.284 35.0878 11.3867 35.3118 11.48C35.5358 11.5547 35.8438 11.6387 36.2358 11.732C37.2625 11.9747 38.1492 12.2547 38.8958 12.572C39.6612 12.8893 40.2865 13.2533 40.7718 13.664C41.2758 14.056 41.6492 14.5133 41.8918 15.036C42.1345 15.54 42.2558 16.1 42.2558 16.716C42.2558 18.1533 41.6492 19.2733 40.4358 20.076C39.2225 20.8787 37.5238 21.28 35.3398 21.28ZM52.3194 21.28C50.5088 21.28 48.9594 20.9907 47.6714 20.412C46.4021 19.8147 45.4314 18.956 44.7594 17.836C44.1061 16.6973 43.7794 15.3253 43.7794 13.72C43.7794 12.096 44.1061 10.724 44.7594 9.604C45.4314 8.484 46.4021 7.63467 47.6714 7.056C48.9594 6.45867 50.5088 6.16 52.3194 6.16C53.2714 6.16 54.1394 6.25333 54.9234 6.44C55.7074 6.608 56.4728 6.888 57.2194 7.28L56.3794 11.2C55.7074 10.8267 55.0821 10.5467 54.5034 10.36C53.9248 10.1733 53.3368 10.08 52.7394 10.08C51.6568 10.08 50.8261 10.388 50.2474 11.004C49.6688 11.62 49.3794 12.5253 49.3794 13.72C49.3794 14.9147 49.6688 15.82 50.2474 16.436C50.8261 17.052 51.6568 17.36 52.7394 17.36C53.3368 17.36 53.9248 17.2667 54.5034 17.08C55.0821 16.8933 55.7074 16.6133 56.3794 16.24L57.2194 20.16C56.4728 20.552 55.7074 20.832 54.9234 21C54.1394 21.1867 53.2714 21.28 52.3194 21.28ZM66.7405 21.28C65.1352 21.28 63.7445 20.972 62.5685 20.356C61.3925 19.74 60.4872 18.872 59.8525 17.752C59.2179 16.6133 58.9005 15.2693 58.9005 13.72C58.9005 12.1707 59.2179 10.836 59.8525 9.716C60.4872 8.57733 61.3925 7.7 62.5685 7.084C63.7445 6.468 65.1352 6.16 66.7405 6.16C68.3459 6.16 69.7365 6.468 70.9125 7.084C72.0885 7.7 72.9939 8.57733 73.6285 9.716C74.2632 10.836 74.5805 12.1707 74.5805 13.72C74.5805 15.2693 74.2632 16.6133 73.6285 17.752C72.9939 18.872 72.0885 19.74 70.9125 20.356C69.7365 20.972 68.3459 21.28 66.7405 21.28ZM66.7405 17.36C67.5245 17.36 68.1125 17.0613 68.5045 16.464C68.8965 15.848 69.0925 14.9333 69.0925 13.72C69.0925 12.5067 68.8965 11.6013 68.5045 11.004C68.1125 10.388 67.5245 10.08 66.7405 10.08C65.9565 10.08 65.3685 10.388 64.9765 11.004C64.5845 11.6013 64.3885 12.5067 64.3885 13.72C64.3885 14.9333 64.5845 15.848 64.9765 16.464C65.3685 17.0613 65.9565 17.36 66.7405 17.36ZM79.1896 21L75.0456 6.44H80.7016L82.9976 17.64H83.0536L85.3496 6.44H91.0056L86.8616 21H79.1896ZM99.8669 21.28C97.1789 21.28 95.1069 20.6267 93.6509 19.32C92.1949 18.0133 91.4669 16.1467 91.4669 13.72C91.4669 11.368 92.1389 9.52 93.4829 8.176C94.8269 6.832 96.6749 6.16 99.0269 6.16C101.323 6.16 103.106 6.804 104.375 8.092C105.663 9.36133 106.307 11.144 106.307 13.44C106.307 13.776 106.298 14.1493 106.279 14.56C106.26 14.9707 106.232 15.2507 106.195 15.4H94.5469V12.18H101.855L101.211 13.16C101.211 11.9467 101.034 11.06 100.679 10.5C100.343 9.94 99.7923 9.66 99.0269 9.66C98.2803 9.66 97.7296 9.94 97.3749 10.5C97.0203 11.06 96.8429 11.9467 96.8429 13.16V14.84C96.8429 15.7173 97.0856 16.3613 97.5709 16.772C98.0563 17.164 98.8403 17.36 99.9229 17.36C100.744 17.36 101.612 17.2573 102.527 17.052C103.46 16.8467 104.254 16.5947 104.907 16.296L105.467 20.216C104.776 20.5333 103.936 20.7947 102.947 21C101.958 21.1867 100.931 21.28 99.8669 21.28ZM108.547 21V6.44H113.811L113.867 8.96H113.923C114.483 8.344 115.08 7.83067 115.715 7.42C116.368 6.99067 117.059 6.67333 117.787 6.468C118.515 6.26267 119.262 6.16 120.027 6.16V10.64C118.944 10.64 117.946 10.8267 117.031 11.2C116.135 11.5733 115.416 12.0773 114.875 12.712C114.352 13.3467 114.091 14.056 114.091 14.84V21H108.547ZM122.414 23.24C123.72 23.0533 124.728 22.8013 125.438 22.484C126.166 22.1853 126.67 21.7467 126.95 21.168C127.248 20.5893 127.398 19.8147 127.398 18.844L127.678 22.68L120.874 6.44H126.754L129.302 15.932H129.358L131.514 6.44H137.394L132.186 20.972C131.7 22.3347 131.094 23.4453 130.366 24.304C129.656 25.1813 128.751 25.8627 127.65 26.348C126.567 26.8333 125.195 27.1973 123.534 27.44L122.414 23.24Z" fill="white"/>
</svg>
