<svg width="24" height="24" viewBox="0 0 24 24" fill="none" xmlns="http://www.w3.org/2000/svg">
<path fill-rule="evenodd" clip-rule="evenodd" d="M9.70493 0H9.76744C9.98948 0 10.2024 0.0882058 10.3594 0.245213C10.5164 0.40222 10.6047 0.615168 10.6047 0.837209C10.6047 1.05925 10.5164 1.2722 10.3594 1.42921C10.2024 1.58621 9.98948 1.67442 9.76744 1.67442C7.6387 1.67442 6.12726 1.67665 4.9786 1.8307C3.85674 1.9814 3.2093 2.26493 2.73712 2.73712C2.26493 3.2093 1.9814 3.85674 1.8307 4.97972C1.67665 6.12726 1.67442 7.6387 1.67442 9.76744C1.67442 9.98948 1.58621 10.2024 1.42921 10.3594C1.2722 10.5164 1.05925 10.6047 0.837209 10.6047C0.615168 10.6047 0.40222 10.5164 0.245213 10.3594C0.0882058 10.2024 0 9.98948 0 9.76744V9.70493C0 7.65321 0 6.02791 0.170791 4.75647C0.347163 3.44819 0.717767 2.38884 1.55274 1.55274C2.38884 0.717767 3.44819 0.347163 4.75647 0.170791C6.02902 0 7.65321 0 9.70493 0ZM19.0203 1.8307C17.8739 1.67665 16.3613 1.67442 14.2326 1.67442C14.0105 1.67442 13.7976 1.58621 13.6406 1.42921C13.4836 1.2722 13.3953 1.05925 13.3953 0.837209C13.3953 0.615168 13.4836 0.40222 13.6406 0.245213C13.7976 0.0882058 14.0105 0 14.2326 0H14.2951C16.3468 0 17.9721 0 19.2435 0.170791C20.5518 0.347163 21.6112 0.717767 22.4473 1.55274C23.2822 2.38884 23.6528 3.44819 23.8292 4.75647C24 6.02902 24 7.65321 24 9.70493V9.76744C24 9.98948 23.9118 10.2024 23.7548 10.3594C23.5978 10.5164 23.3848 10.6047 23.1628 10.6047C22.9408 10.6047 22.7278 10.5164 22.5708 10.3594C22.4138 10.2024 22.3256 9.98948 22.3256 9.76744C22.3256 7.6387 22.3234 6.12726 22.1693 4.9786C22.0186 3.85674 21.7351 3.2093 21.2629 2.73712C20.7907 2.26493 20.1433 1.9814 19.0203 1.8307ZM0.837209 13.3953C1.05925 13.3953 1.2722 13.4836 1.42921 13.6406C1.58621 13.7976 1.67442 14.0105 1.67442 14.2326C1.67442 16.3613 1.67665 17.8739 1.8307 19.0214C1.9814 20.1433 2.26493 20.7907 2.73712 21.2629C3.2093 21.7351 3.85674 22.0186 4.97972 22.1693C6.12726 22.3234 7.6387 22.3256 9.76744 22.3256C9.98948 22.3256 10.2024 22.4138 10.3594 22.5708C10.5164 22.7278 10.6047 22.9408 10.6047 23.1628C10.6047 23.3848 10.5164 23.5978 10.3594 23.7548C10.2024 23.9118 9.98948 24 9.76744 24H9.70493C7.65321 24 6.02791 24 4.75647 23.8292C3.44819 23.6528 2.38884 23.2822 1.55274 22.4473C0.717767 21.6112 0.347163 20.5518 0.170791 19.2435C0 17.971 0 16.3468 0 14.2951V14.2326C0 14.0105 0.0882058 13.7976 0.245213 13.6406C0.40222 13.4836 0.615168 13.3953 0.837209 13.3953ZM23.1628 13.3953C23.3848 13.3953 23.5978 13.4836 23.7548 13.6406C23.9118 13.7976 24 14.0105 24 14.2326V14.2951C24 16.3468 24 17.9721 23.8292 19.2435C23.6528 20.5518 23.2822 21.6112 22.4473 22.4473C21.6112 23.2822 20.5518 23.6528 19.2435 23.8292C17.971 24 16.3468 24 14.2951 24H14.2326C14.0105 24 13.7976 23.9118 13.6406 23.7548C13.4836 23.5978 13.3953 23.3848 13.3953 23.1628C13.3953 22.9408 13.4836 22.7278 13.6406 22.5708C13.7976 22.4138 14.0105 22.3256 14.2326 22.3256C16.3613 22.3256 17.8739 22.3234 19.0214 22.1693C20.1433 22.0186 20.7907 21.7351 21.2629 21.2629C21.7351 20.7907 22.0186 20.1433 22.1693 19.0203C22.3234 17.8739 22.3256 16.3613 22.3256 14.2326C22.3256 14.0105 22.4138 13.7976 22.5708 13.6406C22.7278 13.4836 22.9408 13.3953 23.1628 13.3953Z" fill="white"/>
</svg>
