<svg width="18" height="24" viewBox="0 0 18 24" fill="none" xmlns="http://www.w3.org/2000/svg">
<path d="M8.8421 15.1579C7.78947 15.1579 6.89474 14.7895 6.15789 14.0526C5.42105 13.3158 5.05263 12.4211 5.05263 11.3684V3.78947C5.05263 2.73684 5.42105 1.84211 6.15789 1.10526C6.89474 0.368421 7.78947 0 8.8421 0C9.89474 0 10.7895 0.368421 11.5263 1.10526C12.2632 1.84211 12.6316 2.73684 12.6316 3.78947V11.3684C12.6316 12.4211 12.2632 13.3158 11.5263 14.0526C10.7895 14.7895 9.89474 15.1579 8.8421 15.1579ZM7.57895 24V20.1158C5.38947 19.8211 3.57895 18.8421 2.14737 17.1789C0.715789 15.5158 0 13.5789 0 11.3684H2.52632C2.52632 13.1158 3.14232 14.6055 4.37432 15.8375C5.60632 17.0695 7.09558 17.6851 8.8421 17.6842C10.5895 17.6842 12.0792 17.0682 13.3112 15.8362C14.5432 14.6042 15.1587 13.1149 15.1579 11.3684H17.6842C17.6842 13.5789 16.9684 15.5158 15.5368 17.1789C14.1053 18.8421 12.2947 19.8211 10.1053 20.1158V24H7.57895Z" fill="white"/>
</svg>
