<svg width="26" height="26" viewBox="0 0 26 26" fill="none" xmlns="http://www.w3.org/2000/svg">
<path d="M22.9768 13.778L23.5972 11.4594C24.3221 8.7532 24.6857 7.40068 24.4133 6.22938C24.1974 5.3047 23.7121 4.46482 23.0188 3.81598C22.1415 2.99392 20.7878 2.63149 18.0816 1.90662C15.3753 1.18056 14.0216 0.818134 12.8515 1.09056C11.9268 1.30647 11.087 1.79177 10.4381 2.48507C9.73367 3.23634 9.36643 4.33683 8.82039 6.33619L8.52757 7.42228L7.90711 9.74088C7.18105 12.4471 6.81862 13.7996 7.09104 14.9709C7.30696 15.8956 7.79226 16.7355 8.48556 17.3843C9.36283 18.2064 10.7165 18.5688 13.4228 19.2949C15.8614 19.9477 17.2019 20.3066 18.3 20.1709C18.42 20.1565 18.5376 20.1349 18.6528 20.1085C19.5772 19.8933 20.4171 19.4088 21.0662 18.7164C21.8883 17.838 22.2507 16.4842 22.9768 13.778Z" stroke="white" stroke-width="1.5"/>
<path d="M18.3 20.1709C18.0491 20.9394 17.6083 21.6321 17.0183 22.1847C16.141 23.0068 14.7873 23.3692 12.0811 24.094C9.37485 24.8189 8.02113 25.1825 6.85104 24.9089C5.92649 24.6933 5.08663 24.2085 4.43764 23.5156C3.61557 22.6383 3.25194 21.2846 2.52708 18.5784L1.90662 16.2598C1.18056 13.5536 0.818134 12.1999 1.09056 11.0298C1.30647 10.1051 1.79177 9.26519 2.48507 8.61635C3.36235 7.79428 4.71606 7.43185 7.42228 6.70579C7.93353 6.56898 8.39797 6.44417 8.8204 6.33496" stroke="white" stroke-width="1.5"/>
<path d="M12.734 10.6016L18.5305 12.1545M11.8015 14.0795L15.2794 15.0107" stroke="white" stroke-width="1.5" stroke-linecap="round"/>
</svg>
