<svg width="27" height="24" viewBox="0 0 27 24" fill="none" xmlns="http://www.w3.org/2000/svg">
<path d="M16.1412 0.135492C15.9169 0.025855 15.6664 -0.0186283 15.4181 0.0071043C15.1698 0.032837 14.9337 0.127752 14.7367 0.281049L7.0978 6.22218H2.22223C1.63286 6.22218 1.06762 6.45631 0.650876 6.87305C0.234127 7.2898 0 7.85504 0 8.44441V15.5555C0 16.1449 0.234127 16.7101 0.650876 17.1269C1.06762 17.5436 1.63286 17.7778 2.22223 17.7778H7.0978L14.7367 23.7189C14.9337 23.8722 15.1698 23.9671 15.4181 23.9929C15.6664 24.0186 15.917 23.9741 16.1412 23.8645C16.3655 23.7549 16.5545 23.5845 16.6867 23.3727C16.8189 23.1609 16.8889 22.9163 16.8889 22.6667V1.33327C16.8889 1.08364 16.8188 0.839024 16.6866 0.627269C16.5544 0.415513 16.3654 0.245123 16.1412 0.135492ZM2.66668 8.88885H6.22224V15.1111H2.66668V8.88885ZM14.2223 19.94L8.88892 15.7922V8.20774L14.2223 4.05995V19.94ZM22.2223 12C22.2225 13.191 21.7879 14.3412 21.0001 15.2344C20.8842 15.3658 20.7436 15.473 20.5863 15.55C20.429 15.6269 20.2581 15.6722 20.0833 15.6831C19.9086 15.6941 19.7333 15.6705 19.5677 15.6137C19.402 15.5569 19.2492 15.4681 19.1178 15.3522C18.9865 15.2364 18.8793 15.0958 18.8023 14.9385C18.7253 14.7812 18.6801 14.6103 18.6691 14.4355C18.6582 14.2607 18.6818 14.0855 18.7386 13.9198C18.7954 13.7542 18.8842 13.6013 19.0001 13.47C19.3572 13.0642 19.5543 12.5422 19.5543 12.0016C19.5543 11.4611 19.3572 10.9391 19.0001 10.5333C18.7781 10.2665 18.6688 9.92363 18.6956 9.57757C18.7224 9.23151 18.8831 8.90953 19.1435 8.68007C19.4039 8.45061 19.7436 8.33174 20.0903 8.34873C20.4369 8.36573 20.7633 8.51724 21.0001 8.77108C21.7871 9.6626 22.2217 10.8107 22.2223 12ZM26.6668 12C26.6681 14.296 25.8218 16.5117 24.2901 18.2222C24.0543 18.4858 23.7235 18.645 23.3704 18.6647C23.0173 18.6843 22.6709 18.563 22.4073 18.3272C22.1437 18.0915 21.9845 17.7607 21.9649 17.4076C21.9452 17.0545 22.0665 16.708 22.3023 16.4444C23.3955 15.2222 23.9999 13.6398 23.9999 12C23.9999 10.3601 23.3955 8.77779 22.3023 7.55552C22.1808 7.42587 22.0864 7.27325 22.0247 7.10662C21.9631 6.93999 21.9353 6.76271 21.9431 6.5852C21.9509 6.40769 21.9941 6.23353 22.0702 6.07296C22.1462 5.91238 22.2536 5.76862 22.386 5.65014C22.5184 5.53165 22.6732 5.44083 22.8412 5.383C23.0092 5.32517 23.1871 5.3015 23.3644 5.31339C23.5416 5.32527 23.7148 5.37248 23.8735 5.45222C24.0323 5.53196 24.1736 5.64263 24.289 5.77773C25.8211 7.48804 26.6678 9.70378 26.6668 12Z" fill="white"/>
</svg>
