<svg width="24" height="24" viewBox="0 0 24 24" fill="none" xmlns="http://www.w3.org/2000/svg">
<path d="M1.76803 0L0 1.76803L3.4232 5.19122H2.50784C2.17528 5.19122 1.85634 5.32333 1.62118 5.55849C1.38603 5.79364 1.25392 6.11258 1.25392 6.44514V18.9843C1.25392 19.3169 1.38603 19.6358 1.62118 19.871C1.85634 20.1061 2.17528 20.2382 2.50784 20.2382H17.5549C17.8182 20.2382 18.0439 20.1379 18.2445 20.0125L22.232 24L24 22.232L12.8903 11.1223L1.76803 0ZM3.76176 17.7304V7.69906H5.93103L15.9624 17.7304H3.76176ZM16.3009 7.69906V10.9718L23.8245 18.4953V5.81818L18.8088 10.8339V6.44514C18.8088 6.11258 18.6767 5.79364 18.4415 5.55849C18.2064 5.32333 17.8874 5.19122 17.5549 5.19122H10.5204L13.0282 7.69906H16.3009Z" fill="white"/>
</svg>
